<svg xmlns="http://www.w3.org/2000/svg">
    <defs>
        <symbol id="left-aside-open" viewBox="0 -960 960 960">
            <path d="M500-640v320l160-160-160-160ZM200-120q-33 0-56.5-23.5T120-200v-560q0-33 23.5-56.5T200-840h560q33 0 56.5 23.5T840-760v560q0 33-23.5 56.5T760-120H200Zm120-80v-560H200v560h120Zm80 0h360v-560H400v560Zm-80 0H200h120Z"/>
        </symbol>

        <symbol id="book" viewBox="0 0 448 512">
            <path d="M96 0C43 0 0 43 0 96L0 416c0 53 43 96 96 96l288 0 32 0c17.7 0 32-14.3 32-32s-14.3-32-32-32l0-64c17.7 0 32-14.3 32-32l0-320c0-17.7-14.3-32-32-32L384 0 96 0zm0 384l256 0 0 64L96 448c-17.7 0-32-14.3-32-32s14.3-32 32-32zm32-240c0-8.8 7.2-16 16-16l192 0c8.8 0 16 7.2 16 16s-7.2 16-16 16l-192 0c-8.8 0-16-7.2-16-16zm16 48l192 0c8.8 0 16 7.2 16 16s-7.2 16-16 16l-192 0c-8.8 0-16-7.2-16-16s7.2-16 16-16z" />
        </symbol>

        <symbol id="file" viewBox="0 0 384 512">
            <path d="M64 0C28.7 0 0 28.7 0 64L0 448c0 35.3 28.7 64 64 64l256 0c35.3 0 64-28.7 64-64l0-288-128 0c-17.7 0-32-14.3-32-32L224 0 64 0zM256 0l0 128 128 0L256 0zM112 256l160 0c8.8 0 16 7.2 16 16s-7.2 16-16 16l-160 0c-8.8 0-16-7.2-16-16s7.2-16 16-16zm0 64l160 0c8.8 0 16 7.2 16 16s-7.2 16-16 16l-160 0c-8.8 0-16-7.2-16-16s7.2-16 16-16zm0 64l160 0c8.8 0 16 7.2 16 16s-7.2 16-16 16l-160 0c-8.8 0-16-7.2-16-16s7.2-16 16-16z" />
        </symbol>

        <symbol id="search" viewBox="0 0 512 512">
            <path d="M416 208c0 45.9-14.9 88.3-40 122.7L502.6 457.4c12.5 12.5 12.5 32.8 0 45.3s-32.8 12.5-45.3 0L330.7 376c-34.4 25.2-76.8 40-122.7 40C93.1 416 0 322.9 0 208S93.1 0 208 0S416 93.1 416 208zM208 352a144 144 0 1 0 0-288 144 144 0 1 0 0 288z" />
        </symbol>

        <symbol id="globe" viewBox="0 0 512 512">
            <path d="M352 256c0 22.2-1.2 43.6-3.3 64l-185.3 0c-2.2-20.4-3.3-41.8-3.3-64s1.2-43.6 3.3-64l185.3 0c2.2 20.4 3.3 41.8 3.3 64zm28.8-64l123.1 0c5.3 20.5 8.1 41.9 8.1 64s-2.8 43.5-8.1 64l-123.1 0c2.1-20.6 3.2-42 3.2-64s-1.1-43.4-3.2-64zm112.6-32l-116.7 0c-10-63.9-29.8-117.4-55.3-151.6c78.3 20.7 142 77.5 171.9 151.6zm-149.1 0l-176.6 0c6.1-36.4 15.5-68.6 27-94.7c10.5-23.6 22.2-40.7 33.5-51.5C239.4 3.2 248.7 0 256 0s16.6 3.2 27.8 13.8c11.3 10.8 23 27.9 33.5 51.5c11.6 26 20.9 58.2 27 94.7zm-209 0L18.6 160C48.6 85.9 112.2 29.1 190.6 8.4C165.1 42.6 145.3 96.1 135.3 160zM8.1 192l123.1 0c-2.1 20.6-3.2 42-3.2 64s1.1 43.4 3.2 64L8.1 320C2.8 299.5 0 278.1 0 256s2.8-43.5 8.1-64zM194.7 446.6c-11.6-26-20.9-58.2-27-94.6l176.6 0c-6.1 36.4-15.5 68.6-27 94.6c-10.5 23.6-22.2 40.7-33.5 51.5C272.6 508.8 263.3 512 256 512s-16.6-3.2-27.8-13.8c-11.3-10.8-23-27.9-33.5-51.5zM135.3 352c10 63.9 29.8 117.4 55.3 151.6C112.2 482.9 48.6 426.1 18.6 352l116.7 0zm358.1 0c-30 74.1-93.6 130.9-171.9 151.6c25.5-34.2 45.2-87.7 55.3-151.6l116.7 0z" />
        </symbol>

        <symbol id="more-vert" viewBox="0 0 135 135">
            <path d="M67.5,135c-4.6,0-8.6-1.7-11.9-5-3.3-3.3-5-7.3-5-11.9s1.7-8.6,5-11.9,7.3-5,11.9-5,8.6,1.7,11.9,5,5,7.3,5,11.9-1.7,8.6-5,11.9c-3.3,3.3-7.3,5-11.9,5ZM67.5,84.4c-4.6,0-8.6-1.7-11.9-5-3.3-3.3-5-7.3-5-11.9s1.7-8.6,5-11.9c3.3-3.3,7.3-5,11.9-5s8.6,1.7,11.9,5c3.3,3.3,5,7.3,5,11.9s-1.7,8.6-5,11.9c-3.3,3.3-7.3,5-11.9,5ZM67.5,33.8c-4.6,0-8.6-1.7-11.9-5s-5-7.3-5-11.9,1.7-8.6,5-11.9,7.3-5,11.9-5,8.6,1.7,11.9,5c3.3,3.3,5,7.3,5,11.9s-1.7,8.6-5,11.9c-3.3,3.3-7.3,5-11.9,5Z"/>
        </symbol>

        <symbol id="pirate" viewBox="0 0 448 512">
            <path d="M368 128c0 44.4-25.4 83.5-64 106.4l0 21.6c0 17.7-14.3 32-32 32l-96 0c-17.7 0-32-14.3-32-32l0-21.6c-38.6-23-64-62.1-64-106.4C80 57.3 144.5 0 224 0s144 57.3 144 128zM168 176a32 32 0 1 0 0-64 32 32 0 1 0 0 64zm144-32a32 32 0 1 0 -64 0 32 32 0 1 0 64 0zM3.4 273.7c7.9-15.8 27.1-22.2 42.9-14.3L224 348.2l177.7-88.8c15.8-7.9 35-1.5 42.9 14.3s1.5 35-14.3 42.9L295.6 384l134.8 67.4c15.8 7.9 22.2 27.1 14.3 42.9s-27.1 22.2-42.9 14.3L224 419.8 46.3 508.6c-15.8 7.9-35 1.5-42.9-14.3s-1.5-35 14.3-42.9L152.4 384 17.7 316.6C1.9 308.7-4.5 289.5 3.4 273.7z" />
        </symbol>

        <symbol id="sun" viewBox="0 0 512 512">
            <path d="M361.5 1.2c5 2.1 8.6 6.6 9.6 11.9L391 121l107.9 19.8c5.3 1 9.8 4.6 11.9 9.6s1.5 10.7-1.6 15.2L446.9 256l62.3 90.3c3.1 4.5 3.7 10.2 1.6 15.2s-6.6 8.6-11.9 9.6L391 391 371.1 498.9c-1 5.3-4.6 9.8-9.6 11.9s-10.7 1.5-15.2-1.6L256 446.9l-90.3 62.3c-4.5 3.1-10.2 3.7-15.2 1.6s-8.6-6.6-9.6-11.9L121 391 13.1 371.1c-5.3-1-9.8-4.6-11.9-9.6s-1.5-10.7 1.6-15.2L65.1 256 2.8 165.7c-3.1-4.5-3.7-10.2-1.6-15.2s6.6-8.6 11.9-9.6L121 121 140.9 13.1c1-5.3 4.6-9.8 9.6-11.9s10.7-1.5 15.2 1.6L256 65.1 346.3 2.8c4.5-3.1 10.2-3.7 15.2-1.6zM160 256a96 96 0 1 1 192 0 96 96 0 1 1 -192 0zm224 0a128 128 0 1 0 -256 0 128 128 0 1 0 256 0z" />
        </symbol>

        <symbol id="moon" viewBox="0 0 384 512">
            <path d="M223.5 32C100 32 0 132.3 0 256S100 480 223.5 480c60.6 0 115.5-24.2 155.8-63.4c5-4.9 6.3-12.5 3.1-18.7s-10.1-9.7-17-8.5c-9.8 1.7-19.8 2.6-30.1 2.6c-96.9 0-175.5-78.8-175.5-176c0-65.8 36-123.1 89.3-153.3c6.1-3.5 9.2-10.5 7.7-17.3s-7.3-11.9-14.3-12.5c-6.3-.5-12.6-.8-19-.8z" />
        </symbol>

        <symbol id="sun-moon" viewBox="0 0 512.07 512.07">
            <path d="M446.94,256.04l62.3-90.4c3.1-4.5,3.7-10.2,1.6-15.2-2.1-5-6.6-8.6-11.9-9.6l-107.9-19.8-19.9-107.9c-1-5.3-4.6-9.8-9.6-11.9-5-2.1-10.7-1.5-15.2,1.6l-90.3,62.3L165.74,2.84c-4.5-3.1-10.2-3.7-15.2-1.6-5,2.1-8.6,6.6-9.6,11.9l-19.9,107.9-107.9,19.9c-5.3,1-9.8,4.6-11.9,9.6s-1.5,10.7,1.6,15.2l62.3,90.3L2.84,346.34c-3.1,4.5-3.7,10.2-1.6,15.2s6.6,8.6,11.9,9.6l107.9,19.9,19.9,107.9c1,5.3,4.6,9.8,9.6,11.9s10.7,1.5,15.2-1.6l90.3-62.3,90.3,62.3c4.5,3.1,10.2,3.7,15.2,1.6s8.6-6.6,9.6-11.9l19.9-107.9,107.9-19.9c5.3-1,9.8-4.6,11.9-9.6s1.5-10.7-1.6-15.2l-62.3-90.3ZM256.04,411.71c-85.97,0-155.67-69.7-155.67-155.67s69.7-155.67,155.67-155.67,155.67,69.7,155.67,155.67-69.7,155.67-155.67,155.67ZM257.94,144.66c-62.51,0-113.13,50.77-113.13,113.38s50.62,113.38,113.13,113.38c30.67,0,58.46-12.25,78.86-32.09,2.53-2.48,3.19-6.33,1.57-9.47s-5.11-4.91-8.6-4.3c-4.96.86-10.02,1.32-15.24,1.32-49.05,0-88.83-39.89-88.83-89.08,0-33.31,18.22-62.31,45.2-77.59,3.09-1.77,4.66-5.31,3.9-8.76s-3.69-6.02-7.24-6.33c-3.19-.25-6.38-.4-9.62-.4v-.05Z" />
        </symbol>

        <symbol id="chip" viewBox="0 0 512 512">
            <path d="M176 24c0-13.3-10.7-24-24-24s-24 10.7-24 24l0 40c-35.3 0-64 28.7-64 64l-40 0c-13.3 0-24 10.7-24 24s10.7 24 24 24l40 0 0 56-40 0c-13.3 0-24 10.7-24 24s10.7 24 24 24l40 0 0 56-40 0c-13.3 0-24 10.7-24 24s10.7 24 24 24l40 0c0 35.3 28.7 64 64 64l0 40c0 13.3 10.7 24 24 24s24-10.7 24-24l0-40 56 0 0 40c0 13.3 10.7 24 24 24s24-10.7 24-24l0-40 56 0 0 40c0 13.3 10.7 24 24 24s24-10.7 24-24l0-40c35.3 0 64-28.7 64-64l40 0c13.3 0 24-10.7 24-24s-10.7-24-24-24l-40 0 0-56 40 0c13.3 0 24-10.7 24-24s-10.7-24-24-24l-40 0 0-56 40 0c13.3 0 24-10.7 24-24s-10.7-24-24-24l-40 0c0-35.3-28.7-64-64-64l0-40c0-13.3-10.7-24-24-24s-24 10.7-24 24l0 40-56 0 0-40c0-13.3-10.7-24-24-24s-24 10.7-24 24l0 40-56 0 0-40zM160 128l192 0c17.7 0 32 14.3 32 32l0 192c0 17.7-14.3 32-32 32l-192 0c-17.7 0-32-14.3-32-32l0-192c0-17.7 14.3-32 32-32zm192 32l-192 0 0 192 192 0 0-192z" />
        </symbol>

        <symbol id="write" viewBox="0 0 24 24">
            <path d="M1.26,23.37v-5.37L17.91,1.39c.25-.25.54-.44.85-.57s.63-.19.95-.19c.34,0,.66.06.96.19s.57.32.81.57l1.77,1.77c.25.23.44.5.57.81s.19.63.19.96c0,.32-.06.63-.19.95s-.32.6-.57.85L6.63,23.37H1.26ZM19.77,6.66l1.71-1.71-1.8-1.8-1.71,1.71,1.8,1.8ZM13.89,23.37c1.56,0,3-.39,4.33-1.17s1.99-1.86,1.99-3.25c0-.76-.2-1.41-.6-1.96s-.94-1.02-1.61-1.42l-1.86,1.86c.48.21.86.44,1.14.69s.41.53.41.82c0,.48-.38.92-1.15,1.31s-1.65.58-2.64.58c-.36,0-.66.12-.9.36s-.36.54-.36.9.12.66.36.9c.24.24.54.36.9.36ZM1.99,13.71l1.89-1.89c-.42-.17-.75-.34-.99-.52s-.36-.36-.36-.55c0-.25.19-.51.57-.76s1.18-.64,2.4-1.17c1.85-.8,3.08-1.53,3.69-2.18s.92-1.39.92-2.21c0-1.16-.46-2.08-1.39-2.76s-2.15-1.03-3.66-1.03c-.95,0-1.79.17-2.54.51s-1.32.75-1.72,1.23c-.23.27-.33.58-.28.92s.2.61.47.82c.27.23.58.33.92.28s.62-.18.85-.41c.29-.29.62-.51.98-.63s.8-.19,1.33-.19c.86,0,1.5.13,1.91.38s.62.55.62.88c0,.29-.18.56-.55.81s-1.22.67-2.54,1.28c-1.68.74-2.85,1.41-3.51,2.01s-.98,1.34-.98,2.23c0,.67.18,1.25.54,1.72.36.47.84.89,1.45,1.25Z" />
        </symbol>

        <symbol id="home" viewBox="0 0 576 512">
            <path d="M575.8 255.5c0 18-15 32.1-32 32.1l-32 0 .7 160.2c0 2.7-.2 5.4-.5 8.1l0 16.2c0 22.1-17.9 40-40 40l-16 0c-1.1 0-2.2 0-3.3-.1c-1.4 .1-2.8 .1-4.2 .1L416 512l-24 0c-22.1 0-40-17.9-40-40l0-24 0-64c0-17.7-14.3-32-32-32l-64 0c-17.7 0-32 14.3-32 32l0 64 0 24c0 22.1-17.9 40-40 40l-24 0-31.9 0c-1.5 0-3-.1-4.5-.2c-1.2 .1-2.4 .2-3.6 .2l-16 0c-22.1 0-40-17.9-40-40l0-112c0-.9 0-1.9 .1-2.8l0-69.7-32 0c-18 0-32-14-32-32.1c0-9 3-17 10-24L266.4 8c7-7 15-8 22-8s15 2 21 7L564.8 231.5c8 7 12 15 11 24z" />
        </symbol>

        <symbol id="users" viewBox="0 0 640 512">
            <path d="M144 0a80 80 0 1 1 0 160A80 80 0 1 1 144 0zM512 0a80 80 0 1 1 0 160A80 80 0 1 1 512 0zM0 298.7C0 239.8 47.8 192 106.7 192l42.7 0c15.9 0 31 3.5 44.6 9.7c-1.3 7.2-1.9 14.7-1.9 22.3c0 38.2 16.8 72.5 43.3 96c-.2 0-.4 0-.7 0L21.3 320C9.6 320 0 310.4 0 298.7zM405.3 320c-.2 0-.4 0-.7 0c26.6-23.5 43.3-57.8 43.3-96c0-7.6-.7-15-1.9-22.3c13.6-6.3 28.7-9.7 44.6-9.7l42.7 0C592.2 192 640 239.8 640 298.7c0 11.8-9.6 21.3-21.3 21.3l-213.3 0zM224 224a96 96 0 1 1 192 0 96 96 0 1 1 -192 0zM128 485.3C128 411.7 187.7 352 261.3 352l117.3 0C452.3 352 512 411.7 512 485.3c0 14.7-11.9 26.7-26.7 26.7l-330.7 0c-14.7 0-26.7-11.9-26.7-26.7z" />
        </symbol>

        <symbol id="plus" viewBox="0 0 448 512">
            <path d="M256 80c0-17.7-14.3-32-32-32s-32 14.3-32 32l0 144L48 224c-17.7 0-32 14.3-32 32s14.3 32 32 32l144 0 0 144c0 17.7 14.3 32 32 32s32-14.3 32-32l0-144 144 0c17.7 0 32-14.3 32-32s-14.3-32-32-32l-144 0 0-144z" />
        </symbol>

        <symbol id="plus-circle" viewBox="0 0 24 24">
            <path d="M10.8,18h2.4v-4.8h4.8v-2.4h-4.8v-4.8h-2.4v4.8h-4.8v2.4h4.8v4.8ZM12,24c-1.7,0-3.2-.3-4.7-.9s-2.7-1.5-3.8-2.6-1.9-2.4-2.6-3.8S0,13.7,0,12s.3-3.2.9-4.7,1.5-2.7,2.6-3.8,2.4-1.9,3.8-2.6,3-.9,4.7-.9,3.2.3,4.7.9,2.7,1.5,3.8,2.6,1.9,2.3,2.6,3.8.9,3,.9,4.7-.3,3.2-.9,4.7-1.5,2.7-2.6,3.8-2.3,1.9-3.8,2.6-3,.9-4.7.9ZM12,21.6c2.7,0,4.9-.9,6.8-2.8s2.8-4.1,2.8-6.8-.9-4.9-2.8-6.8-4.1-2.8-6.8-2.8-4.9.9-6.8,2.8-2.8,4.1-2.8,6.8.9,4.9,2.8,6.8,4.1,2.8,6.8,2.8Z"/>
        </symbol>
    </defs>
</svg>