<?xml version="1.0" encoding="UTF-8"?>
<svg id="omath" xmlns="http://www.w3.org/2000/svg" xmlns:xlink="http://www.w3.org/1999/xlink" viewBox="0 0 512 512">
    <defs>
        <linearGradient id="gradient" x1="74.98" y1="76.98" x2="437.02" y2="439.02" gradientTransform="translate(0 514) scale(1 -1)" gradientUnits="userSpaceOnUse">
            <stop offset="0" stop-color="#1976d7" />
            <stop offset="1" stop-color="#0aa2f4" />
        </linearGradient>
    </defs>
    <circle id="circle" cx="256" cy="256" r="256" style="fill:url(#gradient);" />
    <path id="x" style="fill:#fff;" d="M344.05,184.64c0,8.72,3.15,15.86,9.37,21.24,6.06,5.24,13.9,7.89,23.31,7.89,4.82,0,10.38-.9,16.52-2.69,6.64-1.93,13.18-6.89,20.02-15.17,6.82-8.27,10.28-19.1,10.28-32.21v-.11c-.48-16.76-7.31-30.32-20.3-40.3-12.72-9.78-27.98-14.73-45.34-14.73-26.05,0-48.78,12.43-67.63,36.97-6.53-9.82-15.69-18.23-27.33-25.04-13.53-7.92-28.65-11.93-45-11.93-31.88.44-59.06,12.8-80.76,36.76-21.46,23.68-33.99,45.01-37.24,63.4l-.06.33v.33c0,3.23,1.71,6.4,5.22,9.71l1.09,1.03h11.18c8.14-.6,10.49-1.09,11.62-1.44,3.56-1.12,5.01-5.36,5.87-8.96,6.05-20.3,16.74-37.16,31.78-50.13,14.92-12.86,31.07-19.38,47.99-19.38,7.75,0,14.49,2.24,20.6,6.85,5.78,4.36,8.59,11.68,8.59,22.37,0,4.81-1.11,12.89-3.28,23.96-.88,4.15-4.49,18.17-10.72,41.68-6.24,23.54-12.57,46.56-18.82,68.44-6.16,21.57-11.23,35.78-15.06,42.2-11.03,18-23.62,26.75-38.5,26.75l-.39.02c-3.43.36-7.15-.2-11.06-1.68-2.5-.94-4.73-1.82-6.66-2.63.83-.34,1.75-.73,2.78-1.17,5.53-2.37,11.04-6.85,16.86-13.71,5.95-7.01,8.97-15.3,8.97-24.64,0-13.87-5.67-30.4-32.69-30.4-12.63,0-23.71,4.64-32.92,13.78-9.22,9.15-13.89,21.15-13.89,35.65v.14c.48,13.08,5.76,25.59,15.7,37.2,10.12,11.81,26.92,17.81,49.94,17.81h4.04c23.54,0,44.72-12.25,63.03-36.43,16.72,24.6,40.75,37.07,71.5,37.07,28.19,0,53.25-9.72,74.49-28.88,21.05-18.99,35.45-41.12,42.79-65.79l.07-.29c1.43-6.73,1.43-7.25,1.43-7.76,0-3.3-1.8-8.84-13.85-8.84h-2.96c-8.13.6-10.48,1.08-11.62,1.44-2.72.86-4.66,3.67-6.49,9.43l-.03.1c-5.6,19.49-16.3,36.17-31.8,49.57-15.36,13.28-31.06,20.02-46.64,20.02-7.79,0-14.78-2.26-21.37-6.92-6.17-4.37-9.17-11.66-9.17-22.3,0-15.21,13.51-69.87,40.17-162.46,7.62-19.88,19.52-33.17,35.35-39.51,1.64-.49,4.95-1.06,11.53-1.06,8.16,0,14.55,1.12,19.1,3.34-19.64,8.18-29.59,21.98-29.59,41.11Z" />
</svg>